<svg xmlns="http://www.w3.org/2000/svg" width="24" height="24" viewBox="0 0 24 24" fill="none">
  <path d="M12 24C18.6274 24 24 18.6274 24 12C24 5.37258 18.6274 0 12 0C5.37258 0 0 5.37258 0 12C0 18.6274 5.37258 24 12 24Z" fill="#FF0420"/>
  <path d="M17.3438 14.3051C16.6918 15.9859 15.0668 17.1094 13.1855 17.1094C10.5293 17.1094 8.37891 14.9648 8.37891 12.3086C8.37891 9.65234 10.5293 7.50781 13.1855 7.50781C15.0668 7.50781 16.6918 8.63125 17.3438 10.3121H20.7891C19.9922 6.76172 16.9102 4.0625 13.1855 4.0625C8.62109 4.0625 4.93359 7.75 4.93359 12.3086C4.93359 16.8672 8.62109 20.5547 13.1855 20.5547C16.9102 20.5547 19.9922 17.8555 20.7891 14.3051H17.3438Z" fill="white"/>
</svg>

