<svg xmlns="http://www.w3.org/2000/svg" width="397" height="311" viewBox="0 0 397 311" fill="none">
  <path d="M64.8767 237.92L137.907 310.95C140.211 313.254 143.356 314.407 146.5 314.407C149.644 314.407 152.789 313.254 155.093 310.95L391.382 74.6614C396.202 69.8414 396.202 61.9214 391.382 57.1014L318.352 -15.9186C316.048 -18.2226 312.903 -19.3756 309.759 -19.3756C306.615 -19.3756 303.47 -18.2226 301.166 -15.9186L64.8767 220.37C60.0567 225.19 60.0567 233.11 64.8767 237.92Z" fill="url(#paint0_linear)"/>
  <path d="M64.8767 57.1017L247.489 239.714C250.015 242.24 253.493 243.503 256.971 243.503C260.449 243.503 263.927 242.24 266.453 239.714L391.382 114.785C396.202 109.965 396.202 102.045 391.382 97.2252L318.352 24.1952C316.048 21.8912 312.903 20.7382 309.759 20.7382C306.615 20.7382 303.47 21.8912 301.166 24.1952L64.8767 260.484C60.0567 265.304 60.0567 273.224 64.8767 278.044Z" fill="url(#paint1_linear)"/>
  <path d="M318.352 255.471L247.489 326.334C244.963 328.86 241.485 330.123 238.007 330.123C234.529 330.123 231.051 328.86 228.525 326.334L64.8767 162.686C60.0567 157.866 60.0567 149.946 64.8767 145.126L137.907 72.0957C140.211 69.7917 143.356 68.6387 146.5 68.6387C149.644 68.6387 152.789 69.7917 155.093 72.0957L318.352 235.355C323.172 240.175 323.172 248.095 318.352 252.915V255.471Z" fill="url(#paint2_linear)"/>
  <defs>
    <linearGradient id="paint0_linear" x1="341.454" y1="-36.8474" x2="97.3821" y2="321.724" gradientUnits="userSpaceOnUse">
      <stop stop-color="#00FFA3"/>
      <stop offset="1" stop-color="#DC1FFF"/>
    </linearGradient>
    <linearGradient id="paint1_linear" x1="416.45" y1="7.58237" x2="172.378" y2="366.154" gradientUnits="userSpaceOnUse">
      <stop stop-color="#00FFA3"/>
      <stop offset="1" stop-color="#DC1FFF"/>
    </linearGradient>
    <linearGradient id="paint2_linear" x1="295.304" y1="52.1903" x2="51.2322" y2="410.762" gradientUnits="userSpaceOnUse">
      <stop stop-color="#00FFA3"/>
      <stop offset="1" stop-color="#DC1FFF"/>
    </linearGradient>
  </defs>
</svg>

